# xmcd
#
# Track frame offsets:
#	180
#	13424
#	26781
#	41730
#	53710
#	65669
#	77575
#	91082
#	102048
#	116104
#
# Disc length: 1757 seconds
#
# Revision: 0
# Processed by: cddbd v1.5.1PL2 Copyright (c) Steve Scherf et al.
# Submitted via: FairStars CD Ripper 1.01
#
DISCID=7f06db0a
DTITLE=Stan Mcdonald - Out To Sea
DYEAR=2002
DGENRE=Newfie
TTITLE0=Stan Mcdonald - Across The Sea
TTITLE1=Stan Mcdonald - Happy Anniversary
TTITLE2=Stan Mcdonald - Penny Hope
TTITLE3=Stan Mcdonald - Newfoundland Rose
TTITLE4=Stan Mcdonald - A Mother's Prayer
TTITLE5=Stan Mcdonald - Dance With Me
TTITLE6=Stan Mcdonald - Six Cents A Pound
TTITLE7=Stan Mcdonald - Heaven Is Newfoundland
TTITLE8=Stan Mcdonald - Blushing Bride
TTITLE9=Stan Mcdonald - Out To Sea
EXTD=
EXTT0=
EXTT1=
EXTT2=
EXTT3=
EXTT4=
EXTT5=
EXTT6=
EXTT7=
EXTT8=
EXTT9=
PLAYORDER=
